#!OML:ASF I:\Actors\actors\Patient Classification 2\Patient 1\Session 1\actor1.ASF
:FULLY-SPECIFIED
:DEGREES
684
root -0.693554 18.7082 5.78694 3.19874 -3.52468 -1.85316
lowerback 1.71814 1.16664 0.225418
upperback -0.968853 1.57659 0.794338
thorax -1.97186 0.78983 0.633922
lowerneck -8.01495 -2.35688 -0.0874971
upperneck 17.6667 -3.98358 4.16278
head 6.79344 -1.58309 1.02305
rclavicle -2.14499e-014 5.15598e-015
rhumerus -25.7391 37.1383 -80.5225
rradius 112.129
rwrist -39.7055
rhand -5.02164 -43.8642
rfingers 7.12502
rthumb 20.7726 -72.7723
lclavicle -2.14499e-014 5.15598e-015
lhumerus -21.7254 -39.2916 85.8782
lradius 111.427
lwrist 65.2888
lhand -25.6409 -18.7544
lfingers 7.12502
lthumb 0.892603 11.2235
rfemur 0 0 0
rtibia 0
rfoot 0 0
rtoes 0
lfemur -4.67704 -7.82519 -12.8538
ltibia 21.359
lfoot -25.9536 17.9945
ltoes -53.8508
685
root -0.698186 18.7091 5.79129 3.25895 -3.55845 -1.57925
lowerback 1.57937 1.18433 -0.140973
upperback -0.999318 1.58941 0.724466
thorax -1.93331 0.800685 0.769673
lowerneck -8.12597 -2.35068 -0.0586229
upperneck 17.6135 -3.96785 4.10507
head 6.79383 -1.57784 0.99978
rclavicle -4.00996e-015 5.86104e-015
rhumerus -25.888 37.0867 -80.6814
rradius 111.986
rwrist -39.6583
rhand -4.98078 -43.7655
rfingers 7.12502
rthumb 20.8119 -72.6693
lclavicle -4.00996e-015 5.86104e-015
lhumerus -21.8245 -39.2963 86.0065
lradius 111.299
lwrist 65.2935
lhand -25.5574 -18.6109
lfingers 7.12502
lthumb 0.973244 11.3666
rfemur 0 0 0
rtibia 0
rfoot 0 0
rtoes 0
lfemur -4.73257 -7.90094 -13.1495
ltibia 21.3281
lfoot -25.9927 18.0983
ltoes -53.8652
686
root -0.69066 18.7077 5.79167 3.18399 -3.50522 -1.81978
lowerback 1.6972 1.17566 0.244223
upperback -1.00661 1.58848 0.751621
thorax -1.99723 0.79525 0.579214
lowerneck -8.23475 -2.35369 -0.0450427
upperneck 17.5658 -3.96618 4.06597
head 6.79663 -1.57876 0.983871
rclavicle -5.02936e-015 -1.14821e-014
rhumerus -26.038 37.0306 -80.8345
rradius 111.883
rwrist -39.5874
rhand -4.93216 -43.73
rfingers 7.12502
rthumb 20.8586 -72.6287
lclavicle -5.02936e-015 -1.14821e-014
lhumerus -21.9008 -39.312 86.1323
lradius 111.127
lwrist 65.2574
lhand -25.495 -18.7097
lfingers 7.12502
lthumb 1.03345 11.2675
rfemur 0 0 0
rtibia 0
rfoot 0 0
rtoes 0
lfemur -4.66148 -7.87678 -12.9082
ltibia 21.3855
lfoot -26.004 18.0192
ltoes -53.8768
687
root -0.678437 18.7047 5.79025 3.05296 -3.40503 -2.32279
lowerback 1.91938 1.14099 0.980731
upperback -1.00334 1.56598 0.832585
thorax -2.10118 0.774098 0.246004
lowerneck -8.3451 -2.36598 -0.115311
upperneck 17.5548 -3.9869 4.13994
head 6.81595 -1.58584 1.01617
rclavicle -2.39662e-014 4.46334e-015
rhumerus -26.1829 36.9998 -81.0041
rradius 111.798
rwrist -39.5279
rhand -4.89294 -43.8015
rfingers 7.12502
rthumb 20.8963 -72.696
lclavicle -2.39662e-014 4.46334e-015
lhumerus -21.9904 -39.3021 86.2293
lradius 110.946
lwrist 65.2484
lhand -25.4894 -18.7422
lfingers 7.12502
lthumb 1.03886 11.235
rfemur 0 0 0
rtibia 0
rfoot 0 0
rtoes 0
lfemur -4.55341 -7.84254 -12.3919
ltibia 21.5194
lfoot -26.031 17.8674
ltoes -53.9174
688
root -0.67353 18.7029 5.79085 3.00037 -3.34696 -2.54767
lowerback 2.00264 1.12315 1.29857
upperback -1.01121 1.55348 0.864908
thorax -2.1487 0.7633 0.0998881
lowerneck -8.45308 -2.40617 -0.235851
upperneck 17.5436 -4.04063 4.22859
head 6.83685 -1.61086 1.05873
rclavicle -2.38054e-014 -1.42255e-015
rhumerus -26.2771 36.988 -81.1253
rradius 111.684
rwrist -39.5102
rhand -4.94127 -43.8764
rfingers 7.12502
rthumb 20.8498 -72.7761
lclavicle -2.38054e-014 -1.42255e-015
lhumerus -22.0624 -39.2932 86.3097
lradius 110.808
lwrist 65.3077
lhand -25.5094 -18.6759
lfingers 7.12502
lthumb 1.01956 11.3014
rfemur 0 0 0
rtibia 0
rfoot 0 0
rtoes 0
lfemur -4.56145 -7.81635 -12.1568
ltibia 21.6855
lfoot -26.078 17.7713
ltoes -53.9255
689
root -0.674117 18.7022 5.79341 3.00474 -3.331 -2.52345
lowerback 1.97656 1.13209 1.26061
upperback -1.02727 1.56373 0.848569
thorax -2.15099 0.768797 0.104369
lowerneck -8.58274 -2.45598 -0.300546
upperneck 17.5332 -4.1008 4.23284
head 6.8592 -1.64198 1.06407
rclavicle 2.15103e-014 -1.43622e-014
rhumerus -26.3407 36.9883 -81.1947
rradius 111.55
rwrist -39.4789
rhand -4.98139 -43.9065
rfingers 7.12502
rthumb 20.8113 -72.8104
lclavicle 2.15103e-014 -1.43622e-014
lhumerus -22.1137 -39.306 86.4048
lradius 110.694
lwrist 65.3194
lhand -25.4058 -18.5275
lfingers 7.12502
lthumb 1.11963 11.4493
rfemur 0 0 0
rtibia 0
rfoot 0 0
rtoes 0
lfemur -4.62237 -7.79727 -12.1764
ltibia 21.8009
lfoot -26.1056 17.7243
ltoes -53.8908
690
root -0.673248 18.7018 5.79651 3.00954 -3.31663 -2.51923
lowerback 1.99698 1.14246 1.25709
upperback -1.08294 1.57858 0.841356
thorax -2.21945 0.775708 0.0972385
lowerneck -8.72727 -2.48522 -0.315939
upperneck 17.5839 -4.1348 4.19013
head 6.9013 -1.65989 1.0481
rclavicle -1.05488e-015 4.27387e-015
rhumerus -26.5007 36.9986 -81.3059
rradius 111.438
rwrist -39.4239
rhand -4.9796 -43.9376
rfingers 7.12502
rthumb 20.813 -72.8413
lclavicle -1.05488e-015 4.27387e-015
lhumerus -22.2515 -39.3132 86.5735
lradius 110.577
lwrist 65.3015
lhand -25.3219 -18.3522
lfingers 7.12502
lthumb 1.20069 11.6241
rfemur 0 0 0
rtibia 0
rfoot 0 0
rtoes 0
lfemur -4.63305 -7.77947 -12.1807
ltibia 21.819
lfoot -26.0983 17.6981
ltoes -53.9487
691
root -0.669922 18.7017 5.79979 3.02736 -3.30386 -2.48162
lowerback 1.9818 1.15158 1.2326
upperback -1.13577 1.59049 0.838719
thorax -2.26569 0.781643 0.107451
lowerneck -8.85082 -2.50564 -0.346754
upperneck 17.6325 -4.15299 4.14346
head 6.93879 -1.67191 1.03498
rclavicle 8.0502e-015 -2.086e-014
rhumerus -26.6744 36.9836 -81.3995
rradius 111.358
rwrist -39.3857
rhand -4.90985 -43.8855
rfingers 7.12502
rthumb 20.88 -72.7818
lclavicle 8.0502e-015 -2.086e-014
lhumerus -22.3864 -39.3055 86.7864
lradius 110.435
lwrist 65.297
lhand -25.3132 -18.2816
lfingers 7.12502
lthumb 1.20904 11.6947
rfemur 0 0 0
rtibia 0
rfoot 0 0
rtoes 0
lfemur -4.60467 -7.80724 -12.2368
ltibia 21.7386
lfoot -26.0893 17.7324
ltoes -53.9998
